<svg width="123" height="45" viewBox="0 0 123 45" fill="none" xmlns="http://www.w3.org/2000/svg">
<path d="M122.222 36.4135V44.3195H107.58V0.354492H115.465V36.4135H122.222ZM59.658 21.9135C59.048 22.2075 58.41 22.3535 57.788 22.3555V8.21549H57.828C58.45 8.21049 63.092 8.39949 63.092 15.2085C63.092 18.7675 61.512 21.0125 59.658 21.9135ZM36.55 30.5945L38.733 11.7955L40.998 30.5945H36.55ZM106.205 8.37949V0.361492H83.879L80.204 27.1405L76.574 0.360492H68.522L69.423 7.51049C68.495 5.67849 65.199 0.360492 57.943 0.360492C57.896 0.358492 49.883 0.360492 49.883 0.360492L49.852 39.3925L43.984 0.361492L33.439 0.356492L27.367 40.7965L27.369 0.361492H17.278L13.64 23.0785L10.096 0.360492H0V44.3265H7.95V23.1345L11.568 44.3265H15.794L19.359 23.1345V44.3265H34.686L35.614 37.5645H41.784L42.711 44.3265L57.758 44.3345H57.768V44.3265H57.788V30.0565L59.633 29.7865L63.45 44.3365H71.234L71.232 44.3265H71.254L66.243 27.2785C68.781 25.3985 71.649 20.6345 70.886 16.0755V16.0735C70.894 16.1315 75.615 44.3545 75.615 44.3545L84.871 44.3275L91.198 4.47749V44.3275H106.205V36.4195H99.081V26.3395H106.205V18.3095H99.081V8.37849L106.205 8.37949Z" fill="white"/>
</svg>
